<?xml version="1.0" standalone="no"?>
<!DOCTYPE svg PUBLIC "-//W3C//DTD SVG 20010904//EN"
 "http://www.w3.org/TR/2001/REC-SVG-20010904/DTD/svg10.dtd">
<svg version="1.0" xmlns="http://www.w3.org/2000/svg"
 width="1024.000000pt" height="1024.000000pt" viewBox="0 0 1024.000000 1024.000000"
 preserveAspectRatio="xMidYMid meet">

<g transform="translate(0.000000,1024.000000) scale(0.100000,-0.100000)"
fill="#000000" stroke="none">
<path d="M7821 9880 c-102 -37 -196 -100 -496 -333 -215 -167 -211 -163 -236
-215 -45 -94 -26 -210 50 -297 34 -39 354 -521 1201 -1805 376 -569 708 -1068
738 -1109 182 -247 275 -267 506 -109 126 86 365 279 437 354 42 44 89 104
105 134 26 50 29 64 29 150 0 81 -5 105 -28 160 -47 112 -105 203 -687 1080
-312 470 -645 977 -740 1125 -433 676 -547 820 -691 870 -56 20 -123 18 -188
-5z"/>
<path d="M6058 9756 c-81 -34 -205 -117 -423 -284 -232 -178 -364 -305 -401
-386 -23 -51 -26 -68 -22 -136 4 -68 11 -90 55 -181 58 -118 68 -133 1258
-1934 1739 -2632 1667 -2526 1776 -2631 89 -85 118 -99 209 -99 66 0 83 4 145
35 39 20 102 57 140 82 77 52 378 285 469 363 79 68 161 174 182 237 35 105 1
240 -102 406 -104 167 -2477 3759 -2701 4088 -190 279 -258 365 -338 419 -50
35 -64 40 -123 42 -52 2 -80 -3 -124 -21z"/>
<path d="M9465 9193 c-11 -3 -70 -29 -131 -58 -86 -42 -121 -64 -153 -101 -68
-77 -87 -173 -53 -269 24 -67 390 -613 438 -653 72 -59 181 -63 264 -9 47 32
184 187 211 239 10 20 19 45 19 55 0 53 -118 305 -207 443 -71 109 -116 164
-222 273 -88 90 -100 96 -166 80z"/>
<path d="M2265 8489 c-87 -13 -200 -44 -281 -77 -366 -151 -567 -544 -525
-1022 34 -380 180 -628 454 -771 127 -66 241 -91 447 -96 211 -6 378 11 566
60 l129 33 3 467 2 467 -330 0 -330 0 0 -95 0 -95 215 0 215 0 0 -299 c0 -277
-1 -300 -17 -305 -93 -29 -339 -47 -479 -35 -331 29 -539 203 -615 513 -26
106 -35 314 -20 431 14 107 56 233 102 312 56 95 162 194 260 241 116 57 183
73 335 79 159 7 279 -11 436 -64 60 -20 110 -35 112 -32 2 2 22 45 44 96 l40
91 -66 25 c-108 39 -170 55 -290 71 -120 17 -309 19 -407 5z"/>
<path d="M6034 6622 c-28 -10 -68 -32 -90 -48 -21 -17 -550 -426 -1174 -909
-624 -482 -1152 -894 -1173 -914 -82 -79 -116 -210 -83 -324 12 -41 64 -128
185 -310 92 -139 182 -264 199 -279 71 -60 208 -76 292 -35 28 14 2240 1721
2387 1842 50 42 101 139 109 210 13 106 -4 145 -176 408 -87 133 -173 259
-191 281 -64 77 -191 112 -285 78z"/>
<path d="M1712 6136 c-93 -30 -258 -143 -532 -361 -253 -202 -328 -295 -338
-423 -7 -81 35 -197 127 -350 43 -70 397 -611 788 -1202 390 -591 965 -1462
1278 -1935 698 -1057 760 -1148 859 -1252 99 -105 146 -134 231 -141 110 -8
211 42 445 221 306 234 443 365 491 467 52 108 32 242 -59 400 -46 80 -433
669 -1513 2303 -1015 1537 -1349 2036 -1416 2118 -39 47 -97 103 -128 124 -50
35 -64 40 -123 42 -37 2 -86 -3 -110 -11z"/>
<path d="M810 4351 c-60 -23 -143 -77 -270 -174 -259 -199 -359 -298 -413
-407 -28 -57 -32 -74 -31 -145 0 -88 26 -165 92 -280 19 -33 290 -445 602
-915 571 -861 705 -1066 885 -1350 298 -470 439 -642 562 -686 126 -45 249 3
498 193 372 284 397 306 431 378 30 63 30 115 0 185 -13 30 -219 348 -457 707
-239 358 -544 819 -679 1025 -470 718 -831 1256 -898 1339 -112 140 -204 177
-322 130z"/>
<path d="M7240 3435 l0 -95 308 -2 307 -3 3 -867 2 -868 110 0 110 0 0 870 0
870 305 0 305 0 0 95 0 95 -725 0 -725 0 0 -95z"/>
<path d="M495 2057 c-73 -41 -210 -226 -221 -299 -12 -69 165 -389 311 -564
83 -99 186 -203 217 -220 24 -12 33 -12 75 2 69 23 192 97 235 141 63 65 89
157 68 244 -12 50 -56 122 -304 497 -95 144 -113 166 -159 192 -68 39 -160 42
-222 7z"/>
</g>
</svg>
